<svg xmlns="http://www.w3.org/2000/svg" viewBox="0 0 100 100" width="100" height="100">
  <!-- Background Circle -->
  <circle cx="50" cy="50" r="50" fill="#D32F2F"/>
  
  <!-- Head -->
  <circle cx="50" cy="40" r="20" fill="#FFFFFF"/>
  
  <!-- Body -->
  <path d="M50,65 C35,65 25,75 20,90 C30,95 40,100 50,100 C60,100 70,95 80,90 C75,75 65,65 50,65 Z" fill="#FFFFFF"/>
  
  <!-- Crown to represent admin -->
  <path d="M30,30 L40,40 L50,30 L60,40 L70,30 L65,20 L35,20 Z" fill="#FFD700"/>
  
  <!-- Glasses to represent authority -->
  <path d="M30,40 L40,40 M60,40 L70,40 M40,40 C40,43 37,45 35,45 C33,45 30,43 30,40 C30,37 33,35 35,35 C37,35 40,37 40,40 Z M70,40 C70,43 67,45 65,45 C63,45 60,43 60,40 C60,37 63,35 65,35 C67,35 70,37 70,40 Z" stroke="#333333" stroke-width="2" fill="none"/>
</svg> 